Coordinates
version=1
nRows=4
nColumns=63
inDegrees=yes

Units are S.I. units (second, meters, Newtons, ...)
If the header above contains a line with 'inDegrees', this indicates whether rotational values are in degrees (yes) or radians (no).

endheader
time	pelvis_tilt	pelvis_list	pelvis_rotation	pelvis_tx	pelvis_ty	pelvis_tz	hip_flexion_r	hip_adduction_r	hip_rotation_r	knee_angle_r	knee_angle_r_beta	ankle_angle_r	subtalar_angle_r	mtp_angle_r	hip_flexion_l	hip_adduction_l	hip_rotation_l	knee_angle_l	knee_angle_l_beta	ankle_angle_l	subtalar_angle_l	mtp_angle_l	L5_S1_Flex_Ext	L5_S1_Lat_Bending	L5_S1_axial_rotation	L4_L5_Flex_Ext	L4_L5_Lat_Bending	L4_L5_axial_rotation	L3_L4_Flex_Ext	L3_L4_Lat_Bending	L3_L4_axial_rotation	L2_L3_Flex_Ext	L2_L3_Lat_Bending	L2_L3_axial_rotation	L1_L2_Flex_Ext	L1_L2_Lat_Bending	L1_L2_axial_rotation	L1_T12_Flex_Ext	L1_T12_Lat_Bending	L1_T12_axial_rotation	Abs_r3	Abs_r2	Abs_r1	Abs_t1	Abs_t2	neck_flexion	neck_bending	neck_rotation	arm_flex_r	arm_add_r	arm_rot_r	elbow_flex_r	pro_sup_r	wrist_flex_r	wrist_dev_r	arm_flex_l	arm_add_l	arm_rot_l	elbow_flex_l	pro_sup_l	wrist_flex_l	wrist_dev_l
      1.98305085	     -6.14423076	     -5.85788305	     81.78156112	      0.11136543	      1.01180417	      0.36915556	     22.93886157	     -4.34390293	     -6.86647244	     29.08811144	      0.50768332	     50.37721217	     13.84110317	      0.00000000	     18.98387998	      2.39841283	    -15.72245458	     20.54781593	      0.35862704	     47.60762925	     19.01754184	      0.00000000	     -0.09918719	     -0.10988803	      0.60983992	     -0.18420053	     -0.14615108	      0.64795492	     -0.16295463	     -0.26718176	      0.64795492	     -0.11336104	     -0.26718176	      0.53360993	     -0.09210522	     -0.22408367	      0.49549494	     -0.05667556	     -0.17021656	      0.45737994	     -0.70848418	     -1.24307538	      3.39174669	      0.00000000	      0.00000000	     18.19150168	     -3.49138369	      0.74792722	      5.14795641	    -13.09217220	     -2.63705119	     82.25045821	     73.84214373	     -2.65903772	     14.15204677	      2.38406689	    -11.25788207	     -6.24470823	     81.37490670	     85.73989328	    -10.87504794	     11.05117559
      2.00000000	     -6.19084959	     -5.55859889	     81.69818065	      0.11125530	      1.01140431	      0.36967095	     22.81764897	     -4.46327951	     -6.97706519	     29.55899031	      0.51590170	     50.30569895	     13.36861174	      0.00000000	     18.98874434	      2.36645292	    -15.83109858	     21.33836762	      0.37242477	     47.73811018	     18.99164052	      0.00000000	     -0.10011242	     -0.11569901	      0.63010943	     -0.18591878	     -0.15387968	      0.66949127	     -0.16447470	     -0.28131057	      0.66949127	     -0.11441849	     -0.28131057	      0.55134575	     -0.09296439	     -0.23593342	      0.51196391	     -0.05720424	     -0.17921777	      0.47258207	     -0.71509301	     -1.30881034	      3.50447960	      0.00000000	      0.00000000	     17.52243351	     -3.55275813	      1.37667649	      5.74576824	    -13.15393793	     -2.30430265	     81.01068282	     74.23490329	     -2.76925277	     13.86265778	      2.61209527	    -11.34289466	     -5.63289433	     80.98087673	     85.49362935	    -10.84201325	     11.13555800
      2.01694915	     -5.98041445	     -5.33256704	     81.63362539	      0.11102029	      1.01089050	      0.37016774	     22.77848824	     -4.17893914	     -6.58069983	     29.99076621	      0.52343762	     50.25660129	     12.08052243	      0.00000000	     19.14364017	      2.02305633	    -15.99974551	     22.34136275	      0.38993034	     48.14214332	     19.02448451	      0.00000000	     -0.09636115	     -0.07129172	      0.51667067	     -0.17895228	     -0.09481799	      0.54896259	     -0.15831173	     -0.17333869	      0.54896259	     -0.11013115	     -0.17333869	      0.45208684	     -0.08948096	     -0.14537808	      0.41979492	     -0.05506076	     -0.11043088	      0.38750301	     -0.68829803	     -0.80646620	      2.87356729	      0.00000000	      0.00000000	     16.91352716	     -3.56355955	      4.30768013	      6.96787429	    -13.35884094	     -0.90388565	     79.08262873	     76.50767317	     -3.64305014	     11.75505424	      2.20945164	    -11.42712032	     -5.63699911	     81.02559775	     84.61067262	    -11.39939486	     11.07349051
      2.03389831	     -5.68064263	     -5.13728543	     81.64481789	      0.11016544	      1.01037645	      0.37070759	     22.89065078	     -3.93402771	     -6.47105294	     30.59951048	      0.53406221	     50.33935593	     11.26228308	      0.00000000	     19.38665586	      1.64942612	    -15.97497118	     23.39949131	      0.40839817	     48.67143823	     19.02144293	      0.00000000	     -0.09334437	     -0.00653927	      0.36199386	     -0.17334982	     -0.00869723	      0.38461848	     -0.15335546	     -0.01589959	      0.38461848	     -0.10668328	     -0.01589959	      0.31674463	     -0.08667958	     -0.01333489	      0.29412001	     -0.05333697	     -0.01012933	      0.27149540	     -0.66674948	     -0.07397357	      2.01330127	      0.00000000	      0.00000000	     16.36382213	     -3.96569003	      6.80230229	      8.46301404	    -13.58880030	      0.57951945	     77.04970264	     78.96325021	     -4.88458292	     10.32323768	      1.79059404	    -11.37280528	     -5.98083405	     80.89544151	     84.63834898	    -11.63476669	     11.41870046
